{"asset":{"version":"2.0","generator":"THREE.GLTFExporter"},"scenes":[{"nodes":[0],"name":"AuxScene"}],"scene":0,"nodes":[{"mesh":0}],"bufferViews":[{"buffer":0,"byteOffset":0,"byteLength":13320,"target":34962,"byteStride":12},{"buffer":0,"byteOffset":13320,"byteLength":13320,"target":34962,"byteStride":12}],"buffers":[{"byteLength":26640,"uri":"data:application/octet-stream;base64,"}],"accessors":[{"bufferView":0,"componentType":5126,"count":1110,"max":[47.70000457763672,18.51698875427246,-20.199996948242188],"min":[-51.70000076293945,-1.9830130338668823,-119.69999694824219],"type":"VEC3"},{"bufferView":1,"componentType":5126,"count":1110,"max":[0.269149512052536,1,0.40373101830482483],"min":[-0.027251698076725006,0.8743910789489746,-0.04610476642847061],"type":"VEC3"}],"materials":[{"pbrMetallicRoughness":{"baseColorFactor":[0.5019607843137255,0.5019607843137255,0.5019607843137255,1],"metallicFactor":0,"roughnessFactor":1}}],"meshes":[{"primitives":[{"mode":4,"attributes":{"POSITION":0,"NORMAL":1},"material":0}]}]}